# xmcd
#
# Track frame offsets: 
#        150
#        10202
#        21466
#        32549
#        44034
#        54272
#        67815
#        77867
#        88760
#        99125
#        107955
#        118324
#        127754
#        136596
#        146405
#        160669
#        170999
#        182320
#        190461
#        200747
#        213301
#        221377
#        231591
#        241847
#        251641
#
# Disc length: 3495 seconds
#
# Revision: 4
# Processed by: cddbd v1.5.2PL0 Copyright (c) Steve Scherf et al.
# Submitted via: ExactAudioCopyFreeDBPlugin 1.0
#
DISCID=5f0da519
DTITLE=Various Artist - Northern Soul:  The Early Years [Real Gone Mu
DTITLE=sic]
DYEAR=2015
DGENRE=Soul
TTITLE0=H.B. Barnum - It Hurts Too Much to Cry
TTITLE1=Varetta and The Thomases - Fly By Night
TTITLE2=Barrett Strong - Misery
TTITLE3=Sherri Taylor - He's the One That Rings My Bells
TTITLE4=Little Jimmy Griffin - If Things Don't Change
TTITLE5=Etta James - Seven Day Fool
TTITLE6=The Showmen - The Wrong Girl
TTITLE7=Tommy Hunt - Didn't I Tell You
TTITLE8=Bruce Cloud - My Book
TTITLE9=The Furys - Gee Baby
TTITLE10=Marv Johnson - Come to Me
TTITLE11=Geraldine Hunt - I Let Myself Go
TTITLE12=James Ray - A Miracle
TTITLE13=Benny Spellman - Fortune Teller
TTITLE14=Nolan Strong - Mind Over Matter
TTITLE15=Smokey Robinson and The Miracles - Determination
TTITLE16=Gene Chandler - You Threw a Lucky Punch
TTITLE17=Charles Sheffield - It's Your Voodoo Working
TTITLE18=Sam Cooke - Sugar Dumpling
TTITLE19=LaBrenda Ben and The Beljeans - Chaperone
TTITLE20=The Knockouts - Fever
TTITLE21=Billy Bland - All I Want tro Do is Cry
TTITLE22=Big Al Downing - Heartbreak Hill
TTITLE23=Baby Washington - Hush Heart
TTITLE24=Freddie Gorman - The Day Will Come
EXTD=
EXTT0=
EXTT1=
EXTT2=
EXTT3=
EXTT4=
EXTT5=
EXTT6=
EXTT7=
EXTT8=
EXTT9=
EXTT10=
EXTT11=
EXTT12=
EXTT13=
EXTT14=
EXTT15=
EXTT16=
EXTT17=
EXTT18=
EXTT19=
EXTT20=
EXTT21=
EXTT22=
EXTT23=
EXTT24=
PLAYORDER=
